<svg width="32" height="32" viewBox="0 0 32 32" fill="none" xmlns="http://www.w3.org/2000/svg">
  <rect width="32" height="32" rx="8" fill="url(#gradient)"/>
  <path d="M16 8C12.6863 8 10 10.6863 10 14C10 17.3137 12.6863 20 16 20C19.3137 20 22 17.3137 22 14C22 10.6863 19.3137 8 16 8Z" fill="white" fill-opacity="0.9"/>
  <circle cx="14" cy="12" r="1.5" fill="url(#gradient)"/>
  <circle cx="18" cy="12" r="1.5" fill="url(#gradient)"/>
  <path d="M13 16C13.5 17 14.5 17.5 16 17.5C17.5 17.5 18.5 17 19 16" stroke="url(#gradient)" stroke-width="1.5" stroke-linecap="round"/>
  <circle cx="8" cy="24" r="2" fill="#3b82f6" fill-opacity="0.6"/>
  <circle cx="24" cy="24" r="2" fill="#8b5cf6" fill-opacity="0.6"/>
  <circle cx="16" cy="26" r="1.5" fill="#0ea5e9" fill-opacity="0.6"/>
  <defs>
    <linearGradient id="gradient" x1="0%" y1="0%" x2="100%" y2="100%">
      <stop offset="0%" stop-color="#3b82f6"/>
      <stop offset="100%" stop-color="#8b5cf6"/>
    </linearGradient>
  </defs>
</svg>